<svg version="1.2" xmlns="http://www.w3.org/2000/svg" viewBox="0 0 1332 648" width="1332" height="648">
	<style>
		.s0 { fill: #f58025 } 
		.s1 { fill: #000000 } 
		.s2 { fill: #ffffff } 
	</style>
	<g id="Folder 1 copy 2">
		<g id="Folder 1">
			<path id="Layer 28 copy" fill-rule="evenodd" class="s0" d="m1113.54 646.32c-111.12 0-200.95-89.83-200.95-200.95 0-111.13 89.83-200.95 200.95-200.95 111.13 0 200.95 89.82 200.95 200.95 0 111.12-89.82 200.95-200.95 200.95z"/>
			<path id="Layer 28" fill-rule="evenodd" class="s1" d="m1128.54 402.9c-111.12 0-200.95-89.82-200.95-200.95 0-111.13 89.83-200.95 200.95-200.95 111.13 0 200.95 89.82 200.95 200.95 0 111.13-89.82 200.95-200.95 200.95z"/>
			<path id="&amp;" fill-rule="evenodd" class="s0" d="m1281.15 333.88c2.93-0.26-93.12 145.12-141.64 145.12-65.78 0-113.76-42.39-113.76-100.04 0-50.87 37.2-92.69 122.38-136.21-23.18-35.04-32.88-64.43-32.88-98.35 0-66.12 38.27-111.9 93.81-111.9 49.06 0 84.1 35.04 84.1 84.21 0 41.82-24.8 76.3-84.64 119.26 0 0 69.7 98.16 72.63 97.91zm-118.46-66.26c-45.29 27.13-71.71 65.56-71.71 104.56 0 41.26 28.58 71.21 68.48 71.21 29.65 0 52.12-40.12 82.85-68.38zm80.33-142.99c0-35.05-16.17-57.65-41.51-57.65-23.19 0-35.59 19.78-35.59 57.08 0 32.78 9.71 63.87 27.5 90.43 33.96-27.69 49.6-55.95 49.6-89.86z"/>
			<path id="lab" fill-rule="evenodd" class="s2" d="m1019.27 554.08c0 23.97 2.85 28.01 21.13 28.72v8.31h-65.52v-8.31c18.75-0.95 22.31-5.22 22.31-27.06v-102.32c0-17.09-0.47-29.2-1.42-33.24-1.66-7.36-6.18-9.26-21.37-9.26v-8.07l44.87-8.78zm98.52-43.45v-9.73c0-19.7-7.83-28.96-24.69-28.96-10.92 0-14 3.08-18.04 15.43-3.56 9.02-6.17 11.39-12.35 11.39-7.59 0-11.87-4.27-11.87-11.87 0-15.19 16.86-23.97 46.54-23.97 31.81 0 43.68 9.97 43.68 37.03v53.18c0 18.28 3.56 27.06 10.68 27.06 4.27 0 8.78-0.47 11.63-5.22l3.33 5.7c-3.8 7.36-15.2 12.82-26.36 12.82-13.76 0-20.65-9.26-20.65-25.4h-1.19c-8.31 15.43-23.74 25.16-41.3 25.16-19.71 0-32.05-11.16-32.05-28.01 0-15.2 9.73-27.31 38.46-39.65zm0 10.21c-36.33 13.77-48.67 26.35-48.67 40.36 0 10.44 7.6 17.8 18.99 17.8 16.38 0 29.68-17.8 29.68-39.41zm81.19-38.69h0.95c10.21-13.3 20.82-19.86 37.98-19.23 35.88 1.31 60.52 32.7 60.54 65.28 0.02 32.83-24.27 62.18-61.25 65.53-19.93 1.8-34.66-7.13-44.63-18.52l-11.16 15.9h-5.22v-143.39c0-15.9-1.19-26.59-3.09-30.62-2.14-4.51-3.8-5.46-18.75-7.6v-5.93l44.63-9.5zm0.47 59.35c0 23.74 14.72 40.83 35.14 40.83 22.08 0 37.03-21.36 37.03-53.41 0-32.29-15.67-54.84-37.98-54.84-12.82 0-23.5 6.65-28.97 17.57-3.32 6.64-5.22 16.38-5.22 28.72z"/>
			<path id="Shape 1" fill-rule="evenodd" class="s0" d="m551.74 402.18c-12.43 0-22.48-10.05-22.48-22.48 0-12.43 10.05-22.48 22.48-22.48 12.43 0 22.48 10.05 22.48 22.48 0 12.43-10.05 22.48-22.48 22.48z"/>
			<path id="humans" fill-rule="evenodd" class="s1" d="m87.9 194.69h0.74c19.13-30.25 30.9-36.79 46.71-36.79 25.02 0 36.05 24.12 36.05 55.18v99.32c0 18.8 6.62 30.24 18.03 31.06v6.95h-69.16v-6.95c14.35 0 21.7-8.18 21.7-31.06v-91.97c0-27.38-6.25-38.41-21.33-38.41-11.77 0-19.5 5.72-32.74 24.93v107.9c0 18.8 7.73 28.2 21.34 28.61v6.95h-71v-6.95c12.51 0 20.23-7.77 20.23-31.06v-201.91c0-17.16-3.67-23.7-13.24-23.7-1.84 0-3.31 0.4-5.88 1.22l-2.21-6.54 44.51-22.48h6.25zm226.76 112.4c0 16.35 1.47 19.62 8.82 19.62 2.58 0 4.42-0.41 7.73-1.64l2.21 6.54-41.94 22.89h-6.25v-38.01h-0.74c-11.03 23.3-29.42 38.01-46.71 38.01-20.6 0-35.68-19.21-35.68-50.27v-104.22c0-24.12-7.73-31.07-18.76-31.07v-6.94h48.18v136.51c0 20.43 6.99 31.88 20.6 31.88 12.14 0 25.02-9.81 33.11-25.75v-104.63c0-24.12-7.73-31.07-21.34-31.07v-6.94h50.77zm60.85-110.76h0.74c12.51-26.16 26.85-38.42 44.88-38.42 19.49 0 31.26 14.71 33.1 40.87h0.74c13.61-28.61 27.22-40.87 45.61-40.87q35.31 0 35.31 60.08v97.27c0 19.62 7.36 27.38 16.55 28.2v6.95h-65.47v-6.95c13.24 0 19.49-9.4 19.49-31.06v-94.41c0-25.34-5.88-35.97-19.86-35.97-11.03 0-18.76 6.54-30.9 26.16l-0.3 76.19c0 3.89-0.64 13.59-0.24 14.2-0.9-0.43-13.22-5.21-26.99 13.03-3.54 2.33 15.27-128.33-22.13-129.58-10.66 0-20.96 8.58-30.53 26.16v104.22c0 18.8 3.68 29.84 19.87 31.06v6.95h-67.32v-6.95c12.51-2.45 18.03-9.81 18.03-25.34v-115.66c0-11.45-2.95-16.76-9.94-16.76-2.57 0-4.41 0.41-8.09 1.63l-1.84-6.13 43.04-23.29h6.25zm79.71 102.27q-0.03 0.01-0.06-0.03 0.06 0.03 0.06 0.03zm170.59-98.6c0-22.07-7.73-33.51-22.44-33.51-12.51 0-22.44 10.63-22.44 23.71 0 6.54 3.31 12.67 3.31 18.8 0 8.17-6.62 15.12-15.08 15.12-9.56 0-16.18-8.58-16.18-21.25 0-24.94 25.01-44.96 56.28-44.96 27.58 0 45.98 15.53 45.98 44.55v110.35c0 13.49 3.31 19.21 9.56 19.21 4.05 0 6.99-1.64 13.24-6.95v6.95c-9.19 15.53-20.6 24.11-31.63 24.11-13.24 0-20.23-11.85-20.23-34.33h-0.74c-11.4 23.3-25.01 34.33-41.2 34.33-21.7 0-37.15-18.39-37.15-44.14 0-22.48 8.46-42.91 46.72-64.98l32-18.4zm-48.19 98.91c0 19.21 8.83 33.11 20.6 33.11 8.83 0 17.66-6.54 27.59-21.25v-70.71c-33.84 18.8-48.19 33.92-48.19 58.85zm142.15-103.4h0.74c15.81-26.57 29.79-37.6 46.35-37.6 23.17 0 36.04 18.39 36.04 53.95v105.85c0 14.12 5.48 23.43 14.15 25.37v-55.61h6.25c2.94 33.92 17.29 56.4 36.41 56.4 11.78 0 21.34-12.26 21.34-27.79 0-9.4-2.94-18.39-13.24-29.84-5.89-6.54-28.69-28.61-34.21-34.74-12.88-14.3-16.92-27.38-16.92-42.91 0-29.84 15.81-50.68 38.62-50.68 13.98 0 24.65 8.17 29.43 8.17 2.94 0 4.41-1.22 5.88-4.09h6.62v58.45h-6.62c-5.51-31.88-18.39-50.27-34.21-50.27-10.66 0-19.49 10.22-19.49 22.07 0 7.76 3.68 17.57 11.4 26.16 2.94 3.27 23.91 23.7 36.05 37.19 19.5 21.66 21.7 31.06 21.7 47 0 30.25-19.49 53.54-44.87 53.54-15.09 0-28.33-9.81-32.74-9.81-2.21 0-4.78 2.46-4.78 4.09h-71.53v-6.95c14.35 0 21.34-9.4 21.34-31.06v-100.54c0-20.03-6.99-29.84-20.97-29.84-11.4 0-22.07 7.77-32.74 24.93v105.45c0 23.71 7.36 31.06 21.34 31.06v6.95h-70.26v-6.95c13.98-0.41 19.49-11.03 19.49-31.06v-113.62c0-8.18-2.94-13.08-9.93-13.08-2.57 0-4.41 0.41-8.09 1.63l-1.47-6.13 43.04-23.29h5.88z"/>
			<path id="machines" fill-rule="evenodd" class="s1" d="m55.73 429.15h0.66c11.11-23.25 23.86-34.15 39.89-34.15 17.33 0 27.79 13.08 29.42 36.33h0.66c12.1-25.43 24.19-36.33 40.54-36.33q31.39 0 31.39 53.41v86.46c0 17.44 6.54 24.34 14.71 25.07v6.18h-58.2v-6.18c11.77 0 17.33-8.36 17.33-27.61v-83.92c0-22.53-5.23-31.97-17.65-31.97-9.81 0-16.68 5.81-27.47 23.25v92.64c0 19.98 5.89 26.88 17.98 27.61v6.18h-61.47v-6.18c12.76-0.36 17.33-10.54 17.33-27.61v-82.47c0-22.89-5.55-33.42-17.98-33.42-9.48 0-18.64 7.62-27.14 23.25v92.64c0 16.71 3.27 26.52 17.66 27.61v6.18h-59.84v-6.18c11.12-2.18 16.02-8.72 16.02-22.53v-102.81c0-10.17-2.61-14.89-8.82-14.89-2.29 0-3.93 0.36-7.2 1.45l-1.63-5.45 38.25-20.71h5.56zm222.49 3.27c0-19.62-6.87-29.79-19.95-29.79-11.12 0-19.94 9.45-19.94 21.07 0 5.81 2.94 11.26 2.94 16.71 0 7.27-5.89 13.45-13.41 13.45-8.5 0-14.38-7.63-14.38-18.9 0-22.16 22.23-39.96 50.02-39.96 24.53 0 40.87 13.81 40.87 39.6v98.09c0 11.99 2.95 17.08 8.51 17.08 3.59 0 6.21-1.46 11.77-6.18v6.18c-8.18 13.8-18.31 21.43-28.12 21.43-11.77 0-17.99-10.53-17.99-30.52h-0.65c-10.14 20.71-22.23 30.52-36.62 30.52-19.29 0-33.02-16.35-33.02-39.24 0-19.98 7.52-38.14 41.52-57.76l28.45-16.35zm-42.84 87.92c0 17.08 7.85 29.43 18.31 29.43 7.85 0 15.7-5.82 24.53-18.89v-62.86c-30.08 16.72-42.84 30.16-42.84 52.32zm181.62-16.35c-4.58 41.42-22.24 67.21-45.78 67.21-30.73 0-51.01-34.51-51.01-85.74 0-54.13 21.58-90.46 53.63-90.46 20.92 0 39.89 17.8 39.89 37.78 0 9.45-6.21 15.99-15.04 15.99-9.81 0-17.01-7.63-17.01-18.17 0-2.54 1.64-6.9 1.64-10.89 0-7.27-5.56-12.72-12.75-12.72-16.02 0-24.2 20.35-24.2 58.13 0 47.95 13.08 77.02 34.99 77.02 14.71 0 25.5-14.17 30.08-39.6zm38.4-76.29h0.65c17.01-26.89 27.47-32.7 41.53-32.7 22.23 0 32.04 21.43 32.04 49.04v88.29c0 16.4 5.67 26.5 15.47 27.56 11.8-0.77 17.7-8.7 17.7-27.56v-95.55c0-9.45-3.92-16.71-10.79-16.71-2.61 0-4.25 0.36-8.83 2.18l-2.29-5.45 42.51-21.8h5.56v140.6c0 15.95 6.57 23.35 17.04 24.24 11.3-1.07 15.8-10.46 15.8-27.51v-101c0-7.27-2.61-11.63-8.83-11.63-2.29 0-3.92 0.37-7.19 1.46l-1.31-5.45 38.26-20.71h5.23v33.42h0.65c14.06-23.61 26.49-33.42 41.2-33.42 20.6 0 32.04 16.35 32.04 47.95v94.1c0 14.17 6.22 22.89 15.7 22.89v6.17h-60.82v-6.17c12.75 0 18.97-8.36 18.97-27.61v-89.38c0-17.8-6.22-26.52-18.64-26.52-10.14 0-19.62 6.91-29.1 22.16v93.74c0 21.07 6.54 27.61 18.96 27.61v6.17h-182.74v-6.17c12.75 0 19.29-7.27 19.29-27.61v-81.75c0-24.34-5.55-34.15-18.96-34.15-10.46 0-17.33 5.09-29.1 22.16v95.92c0 16.71 6.87 25.06 18.96 25.43v6.17h-63.1v-6.17c11.12 0 17.98-6.91 17.98-27.61l-0.09-199.41c5.22-33.35 26.25-25.84 26.25-25.84zm303.86 46.5c1.64 43.23 14.06 69.03 33.68 69.03 13.73 0 24.2-11.63 32.37-36.69l5.23 2.54q-0.07 0.55-0.15 1.09h3.9c2.61 30.15 15.36 50.13 32.37 50.13 10.46 0 18.96-10.89 18.96-24.7 0-8.36-2.62-16.35-11.77-26.52-5.23-5.81-25.5-25.43-30.41-30.88-11.44-12.72-15.04-24.34-15.04-38.15 0-26.52 14.06-45.05 34.33-45.05 12.43 0 21.91 7.27 26.16 7.27 2.62 0 3.92-1.09 5.23-3.63h5.89v51.95h-5.89c-4.9-28.34-16.35-44.69-30.41-44.69-9.48 0-17.33 9.08-17.33 19.62 0 6.9 3.27 15.62 10.14 23.25 2.62 2.91 21.25 21.07 32.04 33.06 17.33 19.26 19.29 27.61 19.29 41.78 0 26.89-17.33 47.59-39.89 47.59-13.4 0-25.17-8.72-29.1-8.72-1.96 0-4.25 2.18-4.25 3.64h-5.88v-47.03c-7.05 31.49-24.93 52.11-46.58 52.11-28.44 0-48.06-34.51-48.06-84.28 0-38.51 11.44-91.92 49.7-91.92 29.1 0 46.43 29.07 46.75 79.2zm43.49-11.26c-0.33-38.87-7.19-55.95-21.25-55.95-14.39 0-21.58 17.08-22.24 55.95z"/>
		</g>
	</g>
</svg>